Coordinates
version=1
nRows=5
nColumns=42
inDegrees=yes

Units are S.I. units (second, meters, Newtons, ...)
If the header above contains a line with 'inDegrees', this indicates whether rotational values are in degrees (yes) or radians (no).

endheader
time	pelvis_tilt	pelvis_list	pelvis_rotation	pelvis_tx	pelvis_ty	pelvis_tz	hip_flexion_r	hip_adduction_r	hip_rotation_r	knee_angle_r	knee_adduction_r	knee_angle_r_beta	ankle_angle_r	subtalar_angle_r	mtp_angle_r	hip_flexion_l	hip_adduction_l	hip_rotation_l	knee_angle_l	knee_adduction_l	knee_angle_l_beta	ankle_angle_l	subtalar_angle_l	mtp_angle_l	lumbar_extension	lumbar_bending	lumbar_rotation	arm_flex_r	arm_add_r	arm_rot_r	elbow_flex_r	pro_sup_r	wrist_flex_r	wrist_dev_r	arm_flex_l	arm_add_l	arm_rot_l	elbow_flex_l	pro_sup_l	wrist_flex_l	wrist_dev_l
      0.00000000	      1.51608253	     -3.59706339	     -0.00864396	     -1.06814569	      0.94423507	     -0.25827294	     23.76540976	      3.44009797	     -9.95587094	     15.78942103	     -1.47127273	      0.27557738	     -0.63972455	      1.59867290	     -9.32646393	    -17.70872251	     -3.73084743	      2.43851258	     21.31195860	      2.70681601	      0.37196385	      7.98260640	     -4.79098645	     -9.32646393	    -12.48861440	      5.13509682	      1.06845199	    -15.45001020	    -11.32265785	     -8.96176895	     30.91639579	     90.00000001	      0.00000000	      0.00000000	     12.41704061	    -15.02858110	     20.78899472	     51.18537935	     90.00000001	      0.00000000	      0.00000000
      0.01000000	      1.88151202	     -4.03309720	     -0.04358996	     -1.05201871	      0.94515435	     -0.25717639	     23.41295572	      4.09534663	     -9.42934353	     17.66851386	     -1.66957562	      0.30837374	     -0.95002964	      1.13639804	     -9.28613099	    -17.30250898	     -4.33202611	      1.92679860	     24.37305802	      2.78719803	      0.42539011	      5.43758228	     -5.46043389	     -9.28613099	    -12.81587580	      5.82013827	      1.30724399	    -15.34626503	    -11.39109678	     -9.10302881	     30.68229307	     90.00000001	      0.00000000	      0.00000000	     12.19310732	    -14.47047598	     20.03623490	     50.78197402	     90.00000001	      0.00000000	      0.00000000
      0.02000000	      1.77159374	     -4.41497087	     -0.17684501	     -1.03655870	      0.94596827	     -0.25583385	     23.31946706	      4.79874303	     -7.58668523	     19.09331915	     -1.48229427	      0.33324128	     -1.87556056	     -1.41855622	     -9.15380416	    -16.00037083	     -4.93861896	      1.32388197	     27.92675874	      2.94328230	      0.48741389	      2.62942924	     -6.54437009	     -9.15380416	    -12.69271234	      6.41421702	      1.58631427	    -15.10572115	    -11.32773178	     -9.64333746	     30.37857558	     90.00000001	      0.00000000	      0.00000000	     11.84168089	    -13.76244223	     18.74100519	     50.35930575	     90.00000001	      0.00000000	      0.00000000
      0.03000000	      1.95752777	     -4.99529294	     -0.23054935	     -1.02090212	      0.94744081	     -0.25438538	     22.79001609	      5.69703405	     -6.50505678	     20.31795829	     -1.45506998	      0.35461527	     -2.26870227	     -2.77681318	     -9.08287957	    -14.87386701	     -5.83675749	      0.55303320	     31.53747602	      3.02171856	      0.55043279	     -0.32935990	     -7.52973701	     -9.08287957	    -12.88001630	      7.19982037	      1.89944186	    -14.94177216	    -11.32185639	     -9.96146252	     30.28711511	     90.00000001	      0.00000000	      0.00000000	     11.45486089	    -13.11569792	     17.55793219	     50.01594195	     90.00000001	      0.00000000	      0.00000000
      0.04000000	      2.06961664	     -5.42484613	     -0.28469627	     -1.00566634	      0.94914053	     -0.25300751	     22.14279382	      6.41929816	     -4.94677511	     21.19125329	     -1.15662432	      0.36985714	     -2.78502219	     -5.12876093	     -8.95638935	    -13.42591658	     -6.55662327	     -0.37417987	     35.25898034	      2.83485975	      0.61538530	     -3.34670293	     -8.42274235	     -8.95638935	    -13.03005280	      7.80243560	      2.21765858	    -14.73319298	    -11.27957272	    -10.28664850	     30.26102081	     90.00000001	      0.00000000	      0.00000000	     11.06353548	    -12.53809760	     16.48652729	     49.73756193	     90.00000001	      0.00000000	      0.00000000
